<?xml version="1.0" encoding="utf-8"?>
<!-- Generator: Adobe Illustrator 23.1.0, SVG Export Plug-In . SVG Version: 6.00 Build 0)  -->
<svg version="1.1" id="Laag_1" xmlns="http://www.w3.org/2000/svg" xmlns:xlink="http://www.w3.org/1999/xlink" x="0px" y="0px"
	 viewBox="0 0 400 231.8" style="enable-background:new 0 0 400 231.8;" xml:space="preserve">
<style type="text/css">
	.st0{fill:#00a6e2;}
	.st1{fill:#00a6e2;stroke:#FFFFFF;stroke-width:9;stroke-miterlimit:10;}
</style>
<path class="st0" d="M330.6,137.1l-81.3-47c-6.2-3.6-13.9,0.9-13.9,8v26.1H71V76.9h189.9c8.6,0,15.6-7,15.6-15.6V45
	c0-8.6-7-15.6-15.6-15.6H57h-8.4H35.4c-6.5,0-11.9,5.3-11.9,11.9V160c0,6.5,5.3,11.9,11.9,11.9h10.4h13.4h176.2v20.3
	c0,7.1,7.7,11.6,13.9,8l81.3-47C336.7,149.6,336.7,140.7,330.6,137.1z"/>
<path class="st1" d="M368.2,91.1l-81.3-47c-6.2-3.6-13.9,0.9-13.9,8v23.2H77.9c-10.5,0-19.1,8.6-19.1,19.1v12.2
	c0,8.9,7.3,16.2,16.2,16.2h198v23.2c0,7.1,7.7,11.6,13.9,8l81.3-47C374.4,103.6,374.4,94.7,368.2,91.1z"/>
</svg>
